<?xml version="1.0" encoding="UTF-8"?>
<!DOCTYPE svg PUBLIC "-//W3C//DTD SVG 1.1//EN" "http://www.w3.org/Graphics/SVG/1.1/DTD/svg11.dtd">
<svg xmlns="http://www.w3.org/2000/svg" version="1.1" width="195px" height="37px" style="shape-rendering:geometricPrecision; text-rendering:geometricPrecision; image-rendering:optimizeQuality; fill-rule:evenodd; clip-rule:evenodd" xmlns:xlink="http://www.w3.org/1999/xlink">
<g><path style="opacity:0.842" fill="#00b4a9" d="M 10.5,12.5 C 12.288,12.2148 13.9547,12.5481 15.5,13.5C 16.7639,16.1253 17.9305,18.7919 19,21.5C 20.7105,19.0438 22.0438,16.3771 23,13.5C 24.3561,12.6198 25.8561,12.2865 27.5,12.5C 27.5,17.5 27.5,22.5 27.5,27.5C 26.5,27.5 25.5,27.5 24.5,27.5C 25.065,16.1496 23.8983,15.8163 21,26.5C 20.4387,27.0219 19.772,27.3552 19,27.5C 17.1157,25.5498 15.7824,23.2165 15,20.5C 14.5034,22.8098 14.3367,25.1432 14.5,27.5C 13.1667,27.5 11.8333,27.5 10.5,27.5C 10.5,22.5 10.5,17.5 10.5,12.5 Z"/></g>
<g><path style="opacity:0.699" fill="#000000" d="M 34.5,12.5 C 35.8333,12.5 37.1667,12.5 38.5,12.5C 39.7369,17.4754 41.4035,22.3088 43.5,27C 42.8333,27.1667 42.1667,27.3333 41.5,27.5C 39.8641,25.8946 38.0308,24.5613 36,23.5C 33.9692,24.5613 32.1359,25.8946 30.5,27.5C 29.8333,27.3333 29.1667,27.1667 28.5,27C 30.6007,22.1951 32.6007,17.3618 34.5,12.5 Z M 35.5,16.5 C 36.339,17.6412 37.0057,18.9745 37.5,20.5C 36.5,21.8333 35.5,21.8333 34.5,20.5C 35.2458,19.2638 35.5792,17.9305 35.5,16.5 Z"/></g>
<g><path style="opacity:0.71" fill="#000000" d="M 44.5,12.5 C 56.1602,10.6823 59.8269,15.1823 55.5,26C 51.9743,27.3368 48.3076,27.8368 44.5,27.5C 44.5,22.5 44.5,17.5 44.5,12.5 Z M 47.5,14.5 C 53.8404,15.3494 55.507,18.5161 52.5,24C 51.1279,24.4017 49.7946,24.9017 48.5,25.5C 47.5108,21.8927 47.1774,18.226 47.5,14.5 Z"/></g>
<g><path style="opacity:0.712" fill="#000000" d="M 59.5,12.5 C 60.5,12.5 61.5,12.5 62.5,12.5C 62.5,17.5 62.5,22.5 62.5,27.5C 61.5,27.5 60.5,27.5 59.5,27.5C 59.5,22.5 59.5,17.5 59.5,12.5 Z"/></g>
<g><path style="opacity:0.782" fill="#006bc3" d="M 75.5,12.5 C 76.8333,12.5 78.1667,12.5 79.5,12.5C 80.7369,17.4754 82.4035,22.3088 84.5,27C 83.8333,27.1667 83.1667,27.3333 82.5,27.5C 80.8641,25.8946 79.0308,24.5613 77,23.5C 74.9692,24.5613 73.1359,25.8946 71.5,27.5C 70.8333,27.3333 70.1667,27.1667 69.5,27C 71.6007,22.1951 73.6007,17.3618 75.5,12.5 Z M 76.5,16.5 C 77.339,17.6412 78.0057,18.9745 78.5,20.5C 77.5,21.8333 76.5,21.8333 75.5,20.5C 76.2458,19.2638 76.5792,17.9305 76.5,16.5 Z"/></g>
<g><path style="opacity:0.728" fill="#000000" d="M 85.5,12.5 C 88.5184,12.3354 91.5184,12.502 94.5,13C 95.767,14.7959 95.767,16.6293 94.5,18.5C 97.0801,21.3764 97.0801,24.2097 94.5,27C 91.5184,27.498 88.5184,27.6646 85.5,27.5C 85.5,22.5 85.5,17.5 85.5,12.5 Z M 88.5,14.5 C 93.2478,15.0042 93.5811,16.3375 89.5,18.5C 88.5713,17.3112 88.238,15.9778 88.5,14.5 Z M 88.5,20.5 C 92.1612,20.3501 93.1612,21.8501 91.5,25C 90.552,25.4828 89.552,25.6495 88.5,25.5C 88.5,23.8333 88.5,22.1667 88.5,20.5 Z"/></g>
<g><path style="opacity:0.774" fill="#000000" d="M 97.5,12.5 C 101.167,12.5 104.833,12.5 108.5,12.5C 106.868,16.9885 104.535,21.1551 101.5,25C 109.786,25.8969 110.119,26.7302 102.5,27.5C 100.5,27.1667 98.5,26.8333 96.5,26.5C 99.0434,22.5794 101.71,18.7461 104.5,15C 101.639,15.0302 99.3052,14.1969 97.5,12.5 Z"/></g>
<g><path style="opacity:0.744" fill="#000000" d="M 110.5,12.5 C 111.5,12.5 112.5,12.5 113.5,12.5C 113.5,14.5 113.5,16.5 113.5,18.5C 115.5,18.5 117.5,18.5 119.5,18.5C 119.5,16.5 119.5,14.5 119.5,12.5C 120.5,12.5 121.5,12.5 122.5,12.5C 122.5,17.5 122.5,22.5 122.5,27.5C 121.5,27.5 120.5,27.5 119.5,27.5C 119.5,25.5 119.5,23.5 119.5,21.5C 117.5,21.5 115.5,21.5 113.5,21.5C 113.5,23.5 113.5,25.5 113.5,27.5C 112.5,27.5 111.5,27.5 110.5,27.5C 110.5,22.5 110.5,17.5 110.5,12.5 Z"/></g>
<g><path style="opacity:0.706" fill="#000000" d="M 129.5,12.5 C 131.144,12.2865 132.644,12.6198 134,13.5C 135.611,18.1652 137.111,22.8319 138.5,27.5C 135.5,27.8333 134.167,26.5 134.5,23.5C 132.5,23.5 130.5,23.5 128.5,23.5C 128.5,24.8333 128.5,26.1667 128.5,27.5C 127.022,27.762 125.689,27.4287 124.5,26.5C 126.18,21.8123 127.847,17.1457 129.5,12.5 Z M 130.5,17.5 C 132.026,18.1047 133.026,19.2714 133.5,21C 132.167,21.6667 130.833,21.6667 129.5,21C 130.337,19.9887 130.67,18.8221 130.5,17.5 Z"/></g>
<g><path style="opacity:0.659" fill="#000000" d="M 139.5,12.5 C 141.288,12.2148 142.955,12.5481 144.5,13.5C 146.333,16.5 148.167,19.5 150,22.5C 150.498,19.1832 150.665,15.8499 150.5,12.5C 151.5,12.5 152.5,12.5 153.5,12.5C 153.5,17.5 153.5,22.5 153.5,27.5C 152.127,27.6567 150.793,27.49 149.5,27C 147.542,24.2518 145.709,21.4185 144,18.5C 143.502,21.4816 143.335,24.4816 143.5,27.5C 142.167,27.5 140.833,27.5 139.5,27.5C 139.5,22.5 139.5,17.5 139.5,12.5 Z"/></g>
<g><path style="opacity:0.659" fill="#000000" d="M 158.5,12.5 C 165.031,10.7789 169.031,13.1122 170.5,19.5C 169.604,26.7872 165.604,29.2872 158.5,27C 154.537,22.1678 154.537,17.3345 158.5,12.5 Z M 160.5,15.5 C 162.467,15.2606 164.301,15.5939 166,16.5C 168.011,24.1699 165.678,26.1699 159,22.5C 158.167,19.829 158.667,17.4957 160.5,15.5 Z"/></g>
<g><path style="opacity:0.66" fill="#000000" d="M 170.5,12.5 C 171.822,12.33 172.989,12.6634 174,13.5C 175,16.5 176,19.5 177,22.5C 178.265,19.5394 179.431,16.5394 180.5,13.5C 181.723,12.3861 183.056,12.2195 184.5,13C 182.531,17.7397 180.865,22.573 179.5,27.5C 177.856,27.7135 176.356,27.3802 175,26.5C 173.389,21.8348 171.889,17.1681 170.5,12.5 Z"/></g>
</svg>
